<mxfile host="app.diagrams.net" modified="2024-04-16T10:17:31.888Z" agent="Mozilla/5.0 (Windows NT 10.0; Win64; x64) AppleWebKit/537.36 (KHTML, like Gecko) Chrome/123.0.0.0 Safari/537.36" etag="kpPjC-iWesSlv6x74d1G" version="24.2.5" type="device">
  <diagram name="Page-1" id="5LtPxdXb4GhJ0wbKQjeV">
    <mxGraphModel dx="794" dy="1600" grid="1" gridSize="10" guides="1" tooltips="1" connect="1" arrows="1" fold="1" page="1" pageScale="1" pageWidth="850" pageHeight="1100" math="0" shadow="0">
      <root>
        <mxCell id="0" />
        <mxCell id="1" parent="0" />
        <mxCell id="ufT431TMldbVeK-XDKCI-1" value="AWS Account" style="points=[[0,0],[0.25,0],[0.5,0],[0.75,0],[1,0],[1,0.25],[1,0.5],[1,0.75],[1,1],[0.75,1],[0.5,1],[0.25,1],[0,1],[0,0.75],[0,0.5],[0,0.25]];outlineConnect=0;gradientColor=none;html=1;whiteSpace=wrap;fontSize=12;fontStyle=0;container=1;pointerEvents=0;collapsible=0;recursiveResize=0;shape=mxgraph.aws4.group;grIcon=mxgraph.aws4.group_account;strokeColor=#CD2264;fillColor=none;verticalAlign=top;align=left;spacingLeft=30;fontColor=#CD2264;dashed=0;" parent="1" vertex="1">
          <mxGeometry y="-20" width="760" height="480" as="geometry" />
        </mxCell>
        <mxCell id="ufT431TMldbVeK-XDKCI-2" value="Region" style="points=[[0,0],[0.25,0],[0.5,0],[0.75,0],[1,0],[1,0.25],[1,0.5],[1,0.75],[1,1],[0.75,1],[0.5,1],[0.25,1],[0,1],[0,0.75],[0,0.5],[0,0.25]];outlineConnect=0;gradientColor=none;html=1;whiteSpace=wrap;fontSize=12;fontStyle=0;container=1;pointerEvents=0;collapsible=0;recursiveResize=0;shape=mxgraph.aws4.group;grIcon=mxgraph.aws4.group_region;strokeColor=#00A4A6;fillColor=none;verticalAlign=top;align=left;spacingLeft=30;fontColor=#147EBA;dashed=1;" parent="ufT431TMldbVeK-XDKCI-1" vertex="1">
          <mxGeometry x="20" y="40" width="720" height="420" as="geometry" />
        </mxCell>
        <mxCell id="ufT431TMldbVeK-XDKCI-11" value="Private subnet" style="points=[[0,0],[0.25,0],[0.5,0],[0.75,0],[1,0],[1,0.25],[1,0.5],[1,0.75],[1,1],[0.75,1],[0.5,1],[0.25,1],[0,1],[0,0.75],[0,0.5],[0,0.25]];outlineConnect=0;gradientColor=none;html=1;whiteSpace=wrap;fontSize=12;fontStyle=0;container=1;pointerEvents=0;collapsible=0;recursiveResize=0;shape=mxgraph.aws4.group;grIcon=mxgraph.aws4.group_security_group;grStroke=0;strokeColor=#00A4A6;fillColor=#E6F6F7;verticalAlign=top;align=left;spacingLeft=30;fontColor=#147EBA;dashed=0;" parent="ufT431TMldbVeK-XDKCI-2" vertex="1">
          <mxGeometry x="435" y="80" width="110" height="90" as="geometry" />
        </mxCell>
        <mxCell id="ufT431TMldbVeK-XDKCI-20" value="" style="sketch=0;points=[[0,0,0],[0.25,0,0],[0.5,0,0],[0.75,0,0],[1,0,0],[0,1,0],[0.25,1,0],[0.5,1,0],[0.75,1,0],[1,1,0],[0,0.25,0],[0,0.5,0],[0,0.75,0],[1,0.25,0],[1,0.5,0],[1,0.75,0]];outlineConnect=0;fontColor=#232F3E;fillColor=#ED7100;strokeColor=#ffffff;dashed=0;verticalLabelPosition=bottom;verticalAlign=top;align=center;html=1;fontSize=12;fontStyle=0;aspect=fixed;shape=mxgraph.aws4.resourceIcon;resIcon=mxgraph.aws4.ec2;" parent="ufT431TMldbVeK-XDKCI-11" vertex="1">
          <mxGeometry x="35" y="40" width="40" height="40" as="geometry" />
        </mxCell>
        <mxCell id="ufT431TMldbVeK-XDKCI-13" value="Public subnet" style="points=[[0,0],[0.25,0],[0.5,0],[0.75,0],[1,0],[1,0.25],[1,0.5],[1,0.75],[1,1],[0.75,1],[0.5,1],[0.25,1],[0,1],[0,0.75],[0,0.5],[0,0.25]];outlineConnect=0;gradientColor=none;html=1;whiteSpace=wrap;fontSize=12;fontStyle=0;container=1;pointerEvents=0;collapsible=0;recursiveResize=0;shape=mxgraph.aws4.group;grIcon=mxgraph.aws4.group_security_group;grStroke=0;strokeColor=#7AA116;fillColor=#F2F6E8;verticalAlign=top;align=left;spacingLeft=30;fontColor=#248814;dashed=0;" parent="ufT431TMldbVeK-XDKCI-2" vertex="1">
          <mxGeometry x="440" y="200" width="110" height="80" as="geometry" />
        </mxCell>
        <mxCell id="ufT431TMldbVeK-XDKCI-29" value="" style="sketch=0;outlineConnect=0;fontColor=#232F3E;gradientColor=none;fillColor=#8C4FFF;strokeColor=none;dashed=0;verticalLabelPosition=bottom;verticalAlign=top;align=center;html=1;fontSize=12;fontStyle=0;aspect=fixed;pointerEvents=1;shape=mxgraph.aws4.nat_gateway;" parent="ufT431TMldbVeK-XDKCI-13" vertex="1">
          <mxGeometry x="30" y="30" width="40" height="40" as="geometry" />
        </mxCell>
        <mxCell id="ufT431TMldbVeK-XDKCI-31" value="VPC" style="points=[[0,0],[0.25,0],[0.5,0],[0.75,0],[1,0],[1,0.25],[1,0.5],[1,0.75],[1,1],[0.75,1],[0.5,1],[0.25,1],[0,1],[0,0.75],[0,0.5],[0,0.25]];outlineConnect=0;gradientColor=none;html=1;whiteSpace=wrap;fontSize=12;fontStyle=0;container=1;pointerEvents=0;collapsible=0;recursiveResize=0;shape=mxgraph.aws4.group;grIcon=mxgraph.aws4.group_vpc2;strokeColor=#8C4FFF;fillColor=none;verticalAlign=top;align=left;spacingLeft=30;fontColor=#AAB7B8;dashed=0;" parent="ufT431TMldbVeK-XDKCI-2" vertex="1">
          <mxGeometry x="80" y="30" width="620" height="360" as="geometry" />
        </mxCell>
        <mxCell id="ufT431TMldbVeK-XDKCI-30" value="" style="sketch=0;outlineConnect=0;fontColor=#232F3E;gradientColor=none;fillColor=#8C4FFF;strokeColor=none;dashed=0;verticalLabelPosition=bottom;verticalAlign=top;align=center;html=1;fontSize=12;fontStyle=0;aspect=fixed;pointerEvents=1;shape=mxgraph.aws4.internet_gateway;" parent="ufT431TMldbVeK-XDKCI-31" vertex="1">
          <mxGeometry x="313.75" y="330" width="50" height="50" as="geometry" />
        </mxCell>
        <mxCell id="ufT431TMldbVeK-XDKCI-5" value="Availability Zone" style="fillColor=none;strokeColor=#114D07;dashed=1;verticalAlign=top;fontStyle=0;fontColor=#147EBA;whiteSpace=wrap;html=1;" parent="ufT431TMldbVeK-XDKCI-31" vertex="1">
          <mxGeometry x="120" y="10" width="180" height="280" as="geometry" />
        </mxCell>
        <mxCell id="ufT431TMldbVeK-XDKCI-23" value="Private subnet" style="points=[[0,0],[0.25,0],[0.5,0],[0.75,0],[1,0],[1,0.25],[1,0.5],[1,0.75],[1,1],[0.75,1],[0.5,1],[0.25,1],[0,1],[0,0.75],[0,0.5],[0,0.25]];outlineConnect=0;gradientColor=none;html=1;whiteSpace=wrap;fontSize=12;fontStyle=0;container=1;pointerEvents=0;collapsible=0;recursiveResize=0;shape=mxgraph.aws4.group;grIcon=mxgraph.aws4.group_security_group;grStroke=0;strokeColor=#00A4A6;fillColor=#E6F6F7;verticalAlign=top;align=left;spacingLeft=30;fontColor=#147EBA;dashed=0;" parent="ufT431TMldbVeK-XDKCI-31" vertex="1">
          <mxGeometry x="170" y="50" width="110" height="85" as="geometry" />
        </mxCell>
        <mxCell id="ufT431TMldbVeK-XDKCI-25" value="" style="sketch=0;points=[[0,0,0],[0.25,0,0],[0.5,0,0],[0.75,0,0],[1,0,0],[0,1,0],[0.25,1,0],[0.5,1,0],[0.75,1,0],[1,1,0],[0,0.25,0],[0,0.5,0],[0,0.75,0],[1,0.25,0],[1,0.5,0],[1,0.75,0]];outlineConnect=0;fontColor=#232F3E;fillColor=#ED7100;strokeColor=#ffffff;dashed=0;verticalLabelPosition=bottom;verticalAlign=top;align=center;html=1;fontSize=12;fontStyle=0;aspect=fixed;shape=mxgraph.aws4.resourceIcon;resIcon=mxgraph.aws4.ec2;" parent="ufT431TMldbVeK-XDKCI-23" vertex="1">
          <mxGeometry x="45" y="35" width="40" height="40" as="geometry" />
        </mxCell>
        <mxCell id="ufT431TMldbVeK-XDKCI-39" value="" style="outlineConnect=0;dashed=0;verticalLabelPosition=bottom;verticalAlign=top;align=center;html=1;shape=mxgraph.aws3.route_table;fillColor=#F58536;gradientColor=none;" parent="ufT431TMldbVeK-XDKCI-31" vertex="1">
          <mxGeometry x="60" y="200" width="40" height="30" as="geometry" />
        </mxCell>
        <mxCell id="ufT431TMldbVeK-XDKCI-59" value="" style="outlineConnect=0;dashed=0;verticalLabelPosition=bottom;verticalAlign=top;align=center;html=1;shape=mxgraph.aws3.route_table;fillColor=#F58536;gradientColor=none;" parent="ufT431TMldbVeK-XDKCI-31" vertex="1">
          <mxGeometry x="70" y="70" width="40" height="30" as="geometry" />
        </mxCell>
        <mxCell id="ufT431TMldbVeK-XDKCI-66" value="" style="endArrow=open;endFill=1;endSize=12;html=1;rounded=0;" parent="ufT431TMldbVeK-XDKCI-31" edge="1">
          <mxGeometry width="160" relative="1" as="geometry">
            <mxPoint x="110" y="90" as="sourcePoint" />
            <mxPoint x="180" y="90" as="targetPoint" />
            <Array as="points" />
          </mxGeometry>
        </mxCell>
        <mxCell id="ufT431TMldbVeK-XDKCI-67" value="" style="outlineConnect=0;dashed=0;verticalLabelPosition=bottom;verticalAlign=top;align=center;html=1;shape=mxgraph.aws3.route_table;fillColor=#F58536;gradientColor=none;" parent="ufT431TMldbVeK-XDKCI-31" vertex="1">
          <mxGeometry x="550" y="77.5" width="40" height="30" as="geometry" />
        </mxCell>
        <mxCell id="ufT431TMldbVeK-XDKCI-69" value="" style="outlineConnect=0;dashed=0;verticalLabelPosition=bottom;verticalAlign=top;align=center;html=1;shape=mxgraph.aws3.route_table;fillColor=#F58536;gradientColor=none;" parent="ufT431TMldbVeK-XDKCI-31" vertex="1">
          <mxGeometry x="550" y="200" width="40" height="30" as="geometry" />
        </mxCell>
        <mxCell id="ufT431TMldbVeK-XDKCI-72" value="" style="edgeStyle=segmentEdgeStyle;endArrow=classic;html=1;curved=0;rounded=0;endSize=8;startSize=8;exitX=0.475;exitY=0.65;exitDx=0;exitDy=0;exitPerimeter=0;" parent="ufT431TMldbVeK-XDKCI-31" edge="1">
          <mxGeometry width="50" height="50" relative="1" as="geometry">
            <mxPoint x="559" y="97" as="sourcePoint" />
            <mxPoint x="460" y="100" as="targetPoint" />
            <Array as="points">
              <mxPoint x="559" y="100" />
            </Array>
          </mxGeometry>
        </mxCell>
        <mxCell id="ufT431TMldbVeK-XDKCI-81" value="Availability Zone" style="fillColor=none;strokeColor=#003D00;dashed=1;verticalAlign=top;fontStyle=0;fontColor=#147EBA;whiteSpace=wrap;html=1;" parent="ufT431TMldbVeK-XDKCI-31" vertex="1">
          <mxGeometry x="350" y="10" width="170" height="280" as="geometry" />
        </mxCell>
        <mxCell id="ufT431TMldbVeK-XDKCI-84" value="" style="sketch=0;outlineConnect=0;fontColor=#232F3E;gradientColor=none;fillColor=#8C4FFF;strokeColor=none;dashed=0;verticalLabelPosition=bottom;verticalAlign=top;align=center;html=1;fontSize=12;fontStyle=0;aspect=fixed;pointerEvents=1;shape=mxgraph.aws4.application_load_balancer;" parent="ufT431TMldbVeK-XDKCI-31" vertex="1">
          <mxGeometry x="313.75" y="250" width="50" height="50" as="geometry" />
        </mxCell>
        <mxCell id="ufT431TMldbVeK-XDKCI-87" value="Security group" style="fillColor=none;strokeColor=#DD3522;verticalAlign=top;fontStyle=0;fontColor=#DD3522;whiteSpace=wrap;html=1;strokeWidth=3;" parent="ufT431TMldbVeK-XDKCI-31" vertex="1">
          <mxGeometry x="300" y="230" width="80" height="80" as="geometry" />
        </mxCell>
        <mxCell id="ufT431TMldbVeK-XDKCI-12" value="Public subnet" style="points=[[0,0],[0.25,0],[0.5,0],[0.75,0],[1,0],[1,0.25],[1,0.5],[1,0.75],[1,1],[0.75,1],[0.5,1],[0.25,1],[0,1],[0,0.75],[0,0.5],[0,0.25]];outlineConnect=0;gradientColor=none;html=1;whiteSpace=wrap;fontSize=12;fontStyle=0;container=1;pointerEvents=0;collapsible=0;recursiveResize=0;shape=mxgraph.aws4.group;grIcon=mxgraph.aws4.group_security_group;grStroke=0;strokeColor=#7AA116;fillColor=#F2F6E8;verticalAlign=top;align=left;spacingLeft=30;fontColor=#248814;dashed=0;" parent="ufT431TMldbVeK-XDKCI-31" vertex="1">
          <mxGeometry x="170" y="160" width="110" height="90" as="geometry" />
        </mxCell>
        <mxCell id="ufT431TMldbVeK-XDKCI-28" value="" style="sketch=0;outlineConnect=0;fontColor=#232F3E;gradientColor=none;fillColor=#8C4FFF;strokeColor=none;dashed=0;verticalLabelPosition=bottom;verticalAlign=top;align=center;html=1;fontSize=12;fontStyle=0;aspect=fixed;pointerEvents=1;shape=mxgraph.aws4.nat_gateway;" parent="ufT431TMldbVeK-XDKCI-12" vertex="1">
          <mxGeometry x="40" y="40" width="30" height="30" as="geometry" />
        </mxCell>
        <mxCell id="ufT431TMldbVeK-XDKCI-57" value="" style="endArrow=open;endFill=1;endSize=12;html=1;rounded=0;exitX=1;exitY=0.5;exitDx=0;exitDy=0;exitPerimeter=0;" parent="ufT431TMldbVeK-XDKCI-12" source="ufT431TMldbVeK-XDKCI-39" edge="1">
          <mxGeometry width="160" relative="1" as="geometry">
            <mxPoint x="-80" y="45" as="sourcePoint" />
            <mxPoint x="10" y="55" as="targetPoint" />
            <Array as="points" />
          </mxGeometry>
        </mxCell>
        <mxCell id="ufT431TMldbVeK-XDKCI-101" value="" style="endArrow=open;endFill=1;endSize=12;html=1;rounded=0;entryX=0.647;entryY=0.732;entryDx=0;entryDy=0;entryPerimeter=0;" parent="ufT431TMldbVeK-XDKCI-31" source="ufT431TMldbVeK-XDKCI-69" target="ufT431TMldbVeK-XDKCI-81" edge="1">
          <mxGeometry width="160" relative="1" as="geometry">
            <mxPoint x="450" y="289" as="sourcePoint" />
            <mxPoint x="610" y="289" as="targetPoint" />
          </mxGeometry>
        </mxCell>
        <mxCell id="ufT431TMldbVeK-XDKCI-129" value="" style="shape=partialRectangle;whiteSpace=wrap;html=1;bottom=1;right=1;left=1;top=0;fillColor=none;routingCenterX=-0.5;" parent="ufT431TMldbVeK-XDKCI-31" vertex="1">
          <mxGeometry x="230" y="120" width="180" height="40" as="geometry" />
        </mxCell>
        <mxCell id="ufT431TMldbVeK-XDKCI-133" value="" style="line;strokeWidth=1;direction=south;html=1;" parent="ufT431TMldbVeK-XDKCI-31" vertex="1">
          <mxGeometry x="325" y="160" width="10" height="90" as="geometry" />
        </mxCell>
        <mxCell id="ufT431TMldbVeK-XDKCI-89" value="" style="sketch=0;outlineConnect=0;fontColor=#232F3E;gradientColor=none;fillColor=#7AA116;strokeColor=none;dashed=0;verticalLabelPosition=bottom;verticalAlign=top;align=center;html=1;fontSize=12;fontStyle=0;aspect=fixed;pointerEvents=1;shape=mxgraph.aws4.bucket;" parent="ufT431TMldbVeK-XDKCI-2" vertex="1">
          <mxGeometry x="13.829999999999998" y="180" width="38.46" height="40" as="geometry" />
        </mxCell>
        <mxCell id="ufT431TMldbVeK-XDKCI-99" value="" style="endArrow=open;endFill=1;endSize=12;html=1;rounded=0;" parent="ufT431TMldbVeK-XDKCI-2" source="ufT431TMldbVeK-XDKCI-93" target="ufT431TMldbVeK-XDKCI-89" edge="1">
          <mxGeometry width="160" relative="1" as="geometry">
            <mxPoint x="20" y="147.5" as="sourcePoint" />
            <mxPoint x="180" y="147.5" as="targetPoint" />
            <Array as="points" />
          </mxGeometry>
        </mxCell>
        <mxCell id="ufT431TMldbVeK-XDKCI-93" value="" style="sketch=0;outlineConnect=0;fontColor=#232F3E;gradientColor=none;fillColor=#DD344C;strokeColor=none;dashed=0;verticalLabelPosition=bottom;verticalAlign=top;align=center;html=1;fontSize=12;fontStyle=0;aspect=fixed;pointerEvents=1;shape=mxgraph.aws4.role;" parent="ufT431TMldbVeK-XDKCI-2" vertex="1">
          <mxGeometry x="9.059999999999995" y="69.99999999999999" width="48" height="27.08" as="geometry" />
        </mxCell>
        <mxCell id="ufT431TMldbVeK-XDKCI-113" value="" style="edgeStyle=segmentEdgeStyle;endArrow=classic;html=1;curved=0;rounded=0;endSize=8;startSize=8;" parent="ufT431TMldbVeK-XDKCI-2" source="ufT431TMldbVeK-XDKCI-93" target="ufT431TMldbVeK-XDKCI-2" edge="1">
          <mxGeometry width="50" height="50" relative="1" as="geometry">
            <mxPoint x="100" y="70" as="sourcePoint" />
            <mxPoint x="100" y="240" as="targetPoint" />
            <Array as="points" />
          </mxGeometry>
        </mxCell>
        <mxCell id="ufT431TMldbVeK-XDKCI-109" value="Auto Scaling group" style="points=[[0,0],[0.25,0],[0.5,0],[0.75,0],[1,0],[1,0.25],[1,0.5],[1,0.75],[1,1],[0.75,1],[0.5,1],[0.25,1],[0,1],[0,0.75],[0,0.5],[0,0.25]];outlineConnect=0;gradientColor=none;html=1;whiteSpace=wrap;fontSize=12;fontStyle=0;container=1;pointerEvents=0;collapsible=0;recursiveResize=0;shape=mxgraph.aws4.groupCenter;grIcon=mxgraph.aws4.group_auto_scaling_group;grStroke=1;strokeColor=#D86613;fillColor=none;verticalAlign=top;align=center;fontColor=#D86613;dashed=1;spacingTop=25;" parent="ufT431TMldbVeK-XDKCI-1" vertex="1">
          <mxGeometry x="300" y="10" width="256.25" height="200" as="geometry" />
        </mxCell>
        <mxCell id="ufT431TMldbVeK-XDKCI-83" value="Security group" style="fillColor=none;strokeColor=#CC0000;verticalAlign=top;fontStyle=0;fontColor=#DD3522;whiteSpace=wrap;html=1;strokeWidth=3;" parent="ufT431TMldbVeK-XDKCI-109" vertex="1">
          <mxGeometry y="140" width="256.25" height="60" as="geometry" />
        </mxCell>
        <mxCell id="ufT431TMldbVeK-XDKCI-126" value="" style="edgeStyle=elbowEdgeStyle;elbow=horizontal;endArrow=classic;html=1;curved=0;rounded=0;endSize=8;startSize=8;" parent="ufT431TMldbVeK-XDKCI-109" target="ufT431TMldbVeK-XDKCI-93" edge="1">
          <mxGeometry width="50" height="50" relative="1" as="geometry">
            <mxPoint y="50" as="sourcePoint" />
            <mxPoint x="-230" y="60" as="targetPoint" />
            <Array as="points">
              <mxPoint x="-240" y="50" />
            </Array>
          </mxGeometry>
        </mxCell>
        <mxCell id="ufT431TMldbVeK-XDKCI-34" value="" style="edgeStyle=segmentEdgeStyle;endArrow=classic;html=1;curved=0;rounded=0;endSize=8;startSize=8;" parent="ufT431TMldbVeK-XDKCI-1" edge="1">
          <mxGeometry width="50" height="50" relative="1" as="geometry">
            <mxPoint x="440" y="450" as="sourcePoint" />
            <mxPoint x="445" y="490" as="targetPoint" />
            <Array as="points">
              <mxPoint x="440" y="450" />
              <mxPoint x="445" y="450" />
            </Array>
          </mxGeometry>
        </mxCell>
        <mxCell id="ufT431TMldbVeK-XDKCI-35" value="" style="outlineConnect=0;dashed=0;verticalLabelPosition=bottom;verticalAlign=top;align=center;html=1;shape=mxgraph.aws3.internet;fillColor=#D2D3D3;gradientColor=none;" parent="1" vertex="1">
          <mxGeometry x="425" y="470" width="44.5" height="40" as="geometry" />
        </mxCell>
      </root>
    </mxGraphModel>
  </diagram>
</mxfile>
